<?xml version="1.0" standalone="no"?>
<!DOCTYPE svg PUBLIC "-//W3C//DTD SVG 20010904//EN"
 "http://www.w3.org/TR/2001/REC-SVG-20010904/DTD/svg10.dtd">
<svg version="1.0" xmlns="http://www.w3.org/2000/svg"
 width="1200.000000pt" height="400.000000pt" viewBox="0 0 1200.000000 400.000000"
 preserveAspectRatio="xMidYMid meet">
<metadata>
Created by potrace 1.15, written by Peter Selinger 2001-2017
</metadata>
<g transform="translate(0.000000,400.000000) scale(0.100000,-0.100000)"
fill="#000000" stroke="none">
<path d="M3520 3146 l0 -333 83 -7 c84 -7 195 4 257 25 117 41 173 135 149
250 -22 102 -123 163 -266 163 l-73 -1 0 59 0 58 145 0 145 0 0 60 0 60 -220
0 -220 0 0 -334z m273 -17 c50 -26 67 -51 67 -99 0 -80 -50 -120 -150 -120
l-50 0 0 115 0 115 56 0 c30 0 65 -5 77 -11z"/>
<path d="M7140 3135 l0 -325 67 0 66 0 -6 243 c-7 254 -5 263 34 149 11 -31
51 -132 91 -224 l71 -168 74 0 73 0 0 325 0 325 -67 0 -66 0 6 -232 6 -233
-35 90 c-19 50 -62 154 -95 233 l-61 142 -79 0 -79 0 0 -325z"/>
<path d="M8220 3420 l-85 -40 3 -42 c4 -62 14 -66 77 -35 31 15 58 27 60 27 3
0 5 -117 5 -260 l0 -260 70 0 70 0 0 325 0 325 -57 0 c-47 0 -75 -8 -143 -40z"/>
<path d="M7765 3426 c-42 -18 -83 -69 -91 -112 -10 -52 1 -123 23 -153 65 -86
211 -87 275 0 44 58 43 156 -3 220 -36 51 -139 74 -204 45z m112 -75 c30 -48
23 -152 -12 -181 -21 -18 -60 -5 -73 25 -17 37 -15 126 4 153 19 27 65 29 81
3z"/>
<path d="M4260 3294 c-14 -3 -49 -12 -78 -20 -44 -12 -52 -18 -47 -32 3 -9 9
-30 12 -45 4 -21 10 -26 22 -21 76 31 174 30 198 -2 23 -31 16 -44 -25 -44
-86 0 -191 -45 -222 -94 -21 -34 -29 -85 -18 -123 28 -103 163 -142 252 -72
29 22 46 18 46 -12 0 -17 7 -19 63 -19 l62 0 -3 173 c-4 203 -17 246 -87 284
-40 21 -129 35 -175 27z m120 -297 c0 -52 -20 -83 -60 -92 -87 -19 -113 97
-30 128 8 3 32 6 53 6 l37 1 0 -43z"/>
<path d="M5973 3289 c-53 -10 -91 -30 -124 -66 -50 -53 -64 -92 -64 -179 0
-72 3 -86 30 -130 23 -37 45 -56 89 -78 51 -26 68 -30 139 -29 45 0 101 6 125
12 39 11 42 14 36 39 -14 66 -9 62 -88 55 -41 -3 -89 -3 -108 1 -42 8 -88 47
-88 76 0 19 5 20 154 20 l154 0 7 28 c7 32 -8 110 -30 152 -22 42 -81 88 -122
95 -21 4 -45 8 -53 10 -8 1 -34 -1 -57 -6z"/>
<path d="M6585 3291 c-40 -10 -66 -25 -89 -50 -26 -29 -34 -26 -38 12 -3 32
-3 32 -65 35 l-63 3 0 -341 0 -340 75 0 75 0 0 126 0 125 26 -20 c62 -49 147
-48 222 3 137 92 133 346 -6 423 -44 25 -96 34 -137 24z m62 -135 c26 -23 28
-29 28 -104 0 -71 -3 -83 -24 -106 -32 -34 -80 -42 -119 -22 -43 22 -52 44
-52 125 0 60 3 74 26 100 22 26 33 31 69 31 32 0 52 -7 72 -24z"/>
<path d="M4640 3050 l0 -240 75 0 75 0 0 100 0 100 80 0 80 0 0 -100 0 -100
75 0 75 0 0 240 0 240 -75 0 -75 0 0 -85 0 -85 -80 0 -80 0 0 85 0 85 -75 0
-75 0 0 -240z"/>
<path d="M5220 3050 l0 -240 75 0 75 0 0 100 0 100 80 0 80 0 0 -100 0 -100
75 0 75 0 0 240 0 240 -75 0 -75 0 0 -85 0 -85 -80 0 -80 0 0 85 0 85 -75 0
-75 0 0 -240z"/>
<path d="M7700 3015 l0 -35 140 0 140 0 0 35 0 35 -140 0 -140 0 0 -35z"/>
<path d="M3658 2543 l-38 -4 0 -175 0 -174 40 0 40 0 0 63 0 62 46 2 c65 3
106 30 122 80 11 34 11 46 -2 76 -8 20 -25 42 -38 50 -25 17 -112 27 -170 20z"/>
<path d="M5698 2508 c-48 -21 -55 -31 -39 -57 6 -10 13 -11 29 -2 40 21 42 16
42 -124 l0 -135 35 0 35 0 0 170 0 170 -27 0 c-16 -1 -49 -10 -75 -22z"/>
<path d="M6005 2523 c-39 -8 -75 -26 -75 -37 1 -26 17 -38 38 -27 27 15 75 14
90 -1 7 -7 12 -28 12 -47 0 -29 -10 -44 -75 -107 -45 -44 -75 -81 -75 -93 0
-20 6 -21 115 -21 l115 0 0 30 0 30 -65 0 -66 0 55 53 c61 60 81 109 65 157
-16 45 -78 74 -134 63z"/>
<path d="M6293 2519 c-42 -12 -69 -48 -82 -110 -12 -55 -1 -127 25 -167 23
-36 74 -53 117 -41 46 12 73 47 86 108 29 134 -45 239 -146 210z m61 -61 c11
-16 16 -46 16 -98 0 -78 -16 -120 -45 -120 -29 0 -45 42 -45 120 0 78 16 120
45 120 8 0 21 -10 29 -22z"/>
<path d="M6583 2519 c-65 -19 -102 -114 -82 -209 13 -61 39 -95 84 -110 30
-10 41 -9 73 7 50 24 76 78 75 158 -1 114 -64 178 -150 154z m61 -61 c11 -16
16 -46 16 -98 0 -78 -16 -120 -45 -120 -29 0 -45 42 -45 120 0 78 16 120 45
120 8 0 21 -10 29 -22z"/>
<path d="M7107 2421 c-37 -60 -67 -116 -67 -125 0 -13 13 -16 75 -16 l75 0 0
-45 c0 -45 0 -45 35 -45 35 0 35 0 35 45 0 38 3 45 20 45 15 0 20 7 20 25 0
18 -5 25 -20 25 -19 0 -20 7 -20 100 l0 100 -43 0 -42 0 -68 -109z"/>
<path d="M7431 2517 c-44 -15 -71 -52 -82 -112 -10 -52 3 -125 27 -163 23 -36
74 -53 117 -41 46 12 73 47 86 108 29 135 -47 243 -148 208z m59 -57 c17 -17
20 -33 20 -98 0 -80 -16 -122 -45 -122 -29 0 -45 42 -45 120 0 52 5 82 16 98
19 27 28 28 54 2z"/>
<path d="M7713 2519 c-42 -12 -69 -48 -82 -110 -12 -55 -1 -127 25 -167 23
-36 74 -53 117 -41 46 12 73 47 86 108 29 134 -45 239 -146 210z m61 -61 c11
-16 16 -46 16 -98 0 -78 -16 -120 -45 -120 -29 0 -45 42 -45 120 0 78 16 120
45 120 8 0 21 -10 29 -22z"/>
<path d="M3985 2443 c-11 -2 -30 -6 -42 -9 -15 -3 -23 -12 -23 -24 0 -18 5
-20 40 -14 91 15 126 -27 38 -46 -29 -6 -63 -20 -75 -32 -29 -27 -31 -78 -4
-102 22 -20 78 -24 109 -7 27 15 32 14 32 -4 0 -10 10 -15 33 -15 l32 0 -5
103 c-3 66 -10 110 -19 120 -11 14 -76 39 -91 36 -3 -1 -14 -3 -25 -6z"/>
<path d="M4245 2443 c-11 -2 -30 -6 -42 -9 -14 -2 -23 -12 -23 -23 0 -16 7
-19 53 -17 47 1 52 -1 55 -21 3 -19 -3 -23 -37 -29 -31 -5 -41 -11 -41 -25 0
-14 9 -19 43 -21 35 -2 43 -7 45 -25 4 -26 -20 -35 -83 -31 -30 2 -40 -1 -43
-14 -2 -12 8 -19 45 -26 83 -18 163 13 163 63 0 24 -28 55 -50 55 -7 0 -1 11
14 25 29 26 31 37 16 65 -8 16 -72 43 -90 39 -3 -1 -14 -3 -25 -6z"/>
<path d="M4450 2412 c0 -22 -3 -80 -6 -130 l-7 -92 32 0 31 0 1 73 c2 134 11
142 38 33 23 -92 25 -96 52 -96 25 0 29 6 47 68 12 37 24 81 28 97 l8 30 7
-30 c4 -16 7 -63 8 -102 l1 -73 33 0 32 0 -6 102 c-4 57 -7 115 -8 131 -1 25
-4 27 -46 27 l-44 0 -27 -85 c-14 -47 -27 -85 -29 -85 -1 0 -12 38 -25 85
l-23 85 -48 0 -49 0 0 -38z"/>
<path d="M4895 2443 c-56 -15 -95 -71 -95 -137 0 -73 82 -123 175 -107 31 5
40 11 40 26 0 18 -7 20 -56 20 -53 0 -89 15 -89 36 0 5 36 9 80 9 93 0 100 6
79 71 -20 60 -79 96 -134 82z"/>
<path d="M5080 2270 l0 -180 40 0 40 0 0 64 0 65 33 -13 c84 -34 164 55 137
154 -20 73 -81 103 -142 72 -37 -19 -38 -19 -43 -1 -4 13 -16 19 -36 19 l-29
0 0 -180z"/>
<path d="M6786 2423 c9 -16 28 -45 42 -65 24 -37 24 -37 5 -65 -11 -15 -30
-45 -42 -65 l-23 -38 36 0 c33 0 38 4 58 45 12 25 25 45 28 45 3 0 16 -20 28
-45 20 -42 24 -45 62 -45 l39 0 -39 63 c-22 34 -40 67 -40 72 0 6 16 34 35 62
19 29 35 55 35 58 0 3 -15 5 -33 5 -29 0 -35 -5 -56 -47 l-23 -47 -26 47 c-25
43 -30 47 -66 47 l-38 0 18 -27z"/>
<path d="M7920 2270 l0 -180 40 0 40 0 0 64 0 65 33 -13 c84 -34 164 55 137
154 -20 73 -81 103 -142 72 -37 -19 -38 -19 -43 -1 -4 13 -16 19 -36 19 l-29
0 0 -180z"/>
<path d="M8216 2423 c9 -16 28 -45 42 -65 24 -37 24 -37 5 -65 -11 -15 -30
-45 -42 -65 l-23 -38 36 0 c33 0 38 4 58 45 12 25 25 45 28 45 3 0 16 -20 28
-45 20 -42 24 -45 62 -45 l39 0 -39 63 c-22 34 -40 67 -40 72 0 6 16 34 35 62
19 29 35 55 35 58 0 3 -15 5 -33 5 -29 0 -35 -5 -56 -47 l-23 -47 -26 47 c-25
43 -30 47 -66 47 l-38 0 18 -27z"/>
<path d="M3355 1654 c-27 -2 -60 -7 -72 -9 l-23 -5 0 -325 0 -325 75 0 75 0 0
123 0 122 69 2 c86 2 158 31 205 83 54 59 66 156 28 226 -19 35 -79 82 -119
93 -45 13 -168 20 -238 15z m210 -134 c20 -19 25 -33 25 -71 0 -40 -4 -51 -30
-73 -30 -25 -106 -43 -135 -32 -12 4 -15 26 -15 107 l0 101 65 -4 c50 -3 70
-9 90 -28z"/>
<path d="M3950 1474 c-14 -3 -49 -12 -78 -20 -44 -12 -52 -18 -47 -32 3 -9 9
-30 12 -45 4 -21 10 -26 22 -21 76 31 174 30 198 -2 23 -31 16 -44 -25 -44
-86 0 -191 -45 -222 -94 -21 -34 -29 -85 -18 -123 28 -103 163 -142 252 -72
29 22 46 18 46 -12 0 -17 7 -19 63 -19 l62 0 -3 173 c-4 203 -17 246 -87 284
-40 21 -129 35 -175 27z m120 -297 c0 -52 -20 -83 -60 -92 -87 -19 -113 97
-30 128 8 3 32 6 53 6 l37 1 0 -43z"/>
<path d="M4535 1470 c-66 -14 -93 -27 -139 -70 -57 -53 -81 -118 -73 -201 13
-149 142 -236 310 -209 33 5 62 11 64 14 3 3 2 26 -2 53 l-6 48 -75 -3 c-73
-4 -75 -3 -109 31 -32 32 -35 40 -35 95 0 50 4 66 25 91 32 38 84 55 140 47
49 -8 52 -5 61 51 5 35 3 42 -12 46 -40 12 -111 15 -149 7z"/>
<path d="M5615 1471 c-40 -10 -66 -25 -89 -50 -26 -29 -34 -26 -38 12 -3 32
-3 32 -65 35 l-63 3 0 -341 0 -340 25 0 c24 0 25 -3 25 -60 0 -53 2 -60 20
-60 17 0 20 7 20 50 0 46 2 50 24 50 13 0 27 7 30 16 3 9 6 70 6 136 l0 119
26 -20 c62 -49 147 -48 222 3 137 92 133 346 -6 423 -44 25 -96 34 -137 24z
m62 -135 c26 -23 28 -29 28 -104 0 -71 -3 -83 -24 -106 -32 -34 -80 -42 -119
-22 -43 22 -52 44 -52 125 0 60 3 74 26 100 22 26 33 31 69 31 32 0 52 -7 72
-24z"/>
<path d="M6139 1470 c-62 -11 -98 -31 -142 -79 -92 -102 -72 -286 40 -360 145
-96 342 -35 393 122 20 64 9 157 -26 213 -49 80 -157 122 -265 104z m85 -100
c42 -16 66 -66 66 -138 0 -98 -31 -142 -100 -142 -69 0 -100 44 -100 142 0
110 57 168 134 138z"/>
<path d="M7260 1474 c-14 -3 -49 -12 -78 -20 -44 -12 -52 -18 -47 -32 3 -9 9
-30 12 -45 4 -21 10 -26 22 -21 76 31 174 30 198 -2 23 -31 16 -44 -25 -44
-86 0 -191 -45 -222 -94 -21 -34 -29 -85 -18 -123 28 -103 163 -142 252 -72
29 22 46 18 46 -12 0 -17 7 -19 63 -19 l62 0 -3 173 c-4 203 -17 246 -87 284
-40 21 -129 35 -175 27z m120 -297 c0 -52 -20 -83 -60 -92 -87 -19 -113 97
-30 128 8 3 32 6 53 6 l37 1 0 -43z"/>
<path d="M8530 1474 c-14 -3 -49 -12 -78 -20 -44 -12 -52 -18 -47 -32 3 -9 9
-30 12 -45 4 -21 10 -26 22 -21 76 31 174 30 198 -2 23 -31 16 -44 -25 -44
-86 0 -191 -45 -222 -94 -21 -34 -29 -85 -18 -123 28 -103 163 -142 252 -72
29 22 46 18 46 -12 0 -17 7 -19 63 -19 l62 0 -3 173 c-4 203 -17 246 -87 284
-40 21 -129 35 -175 27z m120 -297 c0 -52 -20 -83 -60 -92 -87 -19 -113 97
-30 128 8 3 32 6 53 6 l37 1 0 -43z"/>
<path d="M4790 1230 l0 -240 75 0 75 0 0 185 0 185 75 0 75 0 0 -185 0 -185
75 0 75 0 0 240 0 240 -225 0 -225 0 0 -240z"/>
<path d="M6588 1346 c-4 -115 -6 -128 -37 -190 -27 -54 -37 -66 -57 -66 -23 0
-24 -2 -24 -79 0 -43 3 -99 6 -125 l7 -46 47 0 c47 0 47 0 54 38 3 20 6 54 6
75 l0 37 160 0 160 0 0 -44 c0 -24 3 -58 6 -75 6 -29 9 -31 54 -31 l47 0 6 68
c4 37 7 93 7 125 0 57 0 57 -30 57 l-30 0 0 190 0 190 -189 0 -189 0 -4 -124z
m242 -116 l0 -130 -84 0 -84 0 20 41 c11 23 25 81 31 130 l11 89 53 0 53 0 0
-130z"/>
<path d="M7611 1453 c8 -10 45 -56 84 -102 44 -53 65 -86 57 -89 -47 -15 -79
-64 -136 -210 l-24 -63 71 3 71 3 29 75 c32 86 49 107 95 116 l32 7 0 -102 0
-101 70 0 70 0 0 101 0 101 28 -7 c41 -10 60 -34 90 -116 l28 -74 71 -3 72 -3
-30 82 c-45 123 -67 157 -122 186 -17 9 -12 19 55 99 102 123 101 114 15 114
l-75 0 -54 -92 c-29 -50 -59 -93 -66 -96 -9 -3 -12 21 -12 92 l0 96 -70 0 -70
0 0 -96 c0 -123 -13 -122 -84 1 l-52 90 -79 3 c-74 3 -77 2 -64 -15z"/>
<path d="M4100 756 c0 -26 -6 -48 -15 -56 -8 -7 -15 -25 -15 -41 0 -19 5 -29
15 -29 8 0 15 9 15 20 0 17 7 20 45 20 38 0 45 -3 45 -20 0 -11 7 -20 15 -20
10 0 15 10 15 30 0 17 -4 30 -10 30 -5 0 -10 25 -10 55 l0 55 -50 0 -50 0 0
-44z"/>
<path d="M5670 710 c0 -83 1 -90 20 -90 16 0 20 7 20 35 0 31 2 35 17 26 42
-23 86 43 57 86 -13 21 -22 24 -50 20 -19 -3 -34 -2 -34 4 0 5 -7 9 -15 9 -12
0 -15 -17 -15 -90z"/>
<path d="M5980 735 c0 -58 2 -65 20 -65 15 0 20 7 20 25 0 14 2 25 5 25 2 0
15 -11 29 -25 30 -30 37 -31 66 -7 14 11 23 29 23 47 0 18 -9 36 -23 47 -29
24 -36 23 -66 -7 -14 -14 -27 -25 -29 -25 -3 0 -5 11 -5 25 0 18 -5 25 -20 25
-18 0 -20 -7 -20 -65z"/>
<path d="M8580 710 c0 -83 1 -90 20 -90 16 0 20 7 20 35 0 31 2 35 17 26 42
-23 86 43 57 86 -13 21 -22 24 -50 20 -19 -3 -34 -2 -34 4 0 5 -7 9 -15 9 -12
0 -15 -17 -15 -90z"/>
<path d="M5000 521 c0 -22 -7 -33 -27 -43 -49 -24 -48 -89 2 -108 18 -7 25
-17 25 -35 0 -16 6 -25 15 -25 10 0 15 10 15 29 0 23 5 30 22 33 27 4 48 41
40 70 -3 12 -18 26 -34 32 -23 8 -28 16 -28 43 0 23 -5 33 -15 33 -10 0 -15
-10 -15 -29z"/>
<path d="M4430 400 c0 -83 1 -90 20 -90 16 0 20 7 20 35 0 31 2 35 17 26 42
-23 86 43 57 86 -13 21 -22 24 -50 20 -19 -3 -34 -2 -34 4 0 5 -7 9 -15 9 -12
0 -15 -17 -15 -90z"/>
<path d="M5280 400 c0 -83 1 -90 20 -90 16 0 20 7 20 35 0 31 2 35 17 26 42
-23 86 43 57 86 -13 21 -22 24 -50 20 -19 -3 -34 -2 -34 4 0 5 -7 9 -15 9 -12
0 -15 -17 -15 -90z"/>
<path d="M5770 400 c0 -83 1 -90 20 -90 16 0 20 7 20 35 0 31 2 35 17 26 42
-23 86 43 57 86 -13 21 -22 24 -50 20 -19 -3 -34 -2 -34 4 0 5 -7 9 -15 9 -12
0 -15 -17 -15 -90z"/>
</g>
</svg>
